<svg aria-hidden="true" style="position: absolute; width: 0; height: 0; overflow: hidden;" version="1.1" xmlns="http://www.w3.org/2000/svg" xmlns:xlink="http://www.w3.org/1999/xlink">
<defs>
<symbol id="icon-edit" viewBox="0 0 32 32">
<path d="M26.783 30.603h-21.757c-2.002 0-3.626-1.624-3.626-3.628v-21.771c0-2.004 1.647-3.8 3.65-3.8h14.6v1.825h-14.599c-1.001 0-1.837 0.973-1.837 1.975v21.771c0 1.002 0.812 1.814 1.813 1.814h21.757c1.001 0 1.992-0.834 1.992-1.835v-14.599h1.825v14.6c0 2.004-1.814 3.65-3.817 3.65l0 0zM15.946 21.812c-0.265 0.265-0.597 0.398-0.939 0.465l-7.938 3.926c-0.893 0.414-1.609-0.386-1.28-1.28l3.924-7.944c0.067-0.342 0.199-0.674 0.465-0.94l14.102-14.112c0.708-0.708 1.856-0.708 2.564 0l3.205 3.207c0.708 0.708 0.708 1.857 0 2.566l-14.102 14.111zM7.526 23.825c-0.207 0.419 0.193 0.848 0.639 0.64l4.902-2.969-2.574-2.576-2.967 4.905zM12.101 17.963l1.923 1.924c0.354 0.354-0.561-0.561 0.641 0.641l10.256-10.262-3.228-3.184-10.233 10.239c0.341 0.341 0.287 0.288 0.641 0.642h0zM28.126 5.777l-1.923-1.924c-0.354-0.355-0.928-0.355-1.282 0l-1.877 1.878 3.159 3.253 1.923-1.925c0.355-0.354 0.355-0.928 0-1.282l0-0z"></path>
</symbol>
<symbol id="icon-close" viewBox="0 0 32 32">
<path stroke-linejoin="round" stroke-linecap="round" stroke-miterlimit="4"  d="M30.667 30.667l-29.333-29.333M30.667 1.333l-29.333 29.333"></path>
</symbol>
</defs>
</svg>
